HIERARCHY
ROOT joint_Root
{
	OFFSET 0.0 0.0 0.0
	CHANNELS 6 Xposition Yposition Zposition Zrotation Xrotation Yrotation 
	JOINT Hips
	{
		OFFSET -17.1583 93.1646 452.98
		CHANNELS 6 Xposition Yposition Zposition Zrotation Xrotation Yrotation 
		JOINT Spine
		{
			OFFSET 15.7357 0.0 0.0
			CHANNELS 6 Xposition Yposition Zposition Zrotation Xrotation Yrotation 
			JOINT Chest
			{
				OFFSET 8.98455 -0.406207 0.0
				CHANNELS 6 Xposition Yposition Zposition Zrotation Xrotation Yrotation 
				JOINT Neck
				{
					OFFSET 16.3773 0.0 0.0
					CHANNELS 6 Xposition Yposition Zposition Zrotation Xrotation Yrotation 
					JOINT Head
					{
						OFFSET 6.45672 0.0 0.0
						CHANNELS 6 Xposition Yposition Zposition Zrotation Xrotation Yrotation 
						End Site
						{
							OFFSET 0.0 0.0 0.0
						}
					}
				}
				JOINT Shoulder_L
				{
					OFFSET 12.9942 -0.242716 4.98039
					CHANNELS 6 Xposition Yposition Zposition Zrotation Xrotation Yrotation 
					JOINT UpperArm_L
					{
						OFFSET 5.34809 0.0 0.0
						CHANNELS 6 Xposition Yposition Zposition Zrotation Xrotation Yrotation 
						JOINT LowerArm_L
						{
							OFFSET 24.3286 1.87007e-05 0.0
							CHANNELS 6 Xposition Yposition Zposition Zrotation Xrotation Yrotation 
							JOINT Hand_L
							{
								OFFSET 22.2916 0.0 0.0
								CHANNELS 6 Xposition Yposition Zposition Zrotation Xrotation Yrotation 
								End Site
								{
									OFFSET 0.0 0.0 0.0
								}
							}
						}
					}
				}
				JOINT Shoulder_R
				{
					OFFSET 12.9945 -0.242716 -4.98039
					CHANNELS 6 Xposition Yposition Zposition Zrotation Xrotation Yrotation 
					JOINT UpperArm_R
					{
						OFFSET -5.34813 0.0 0.0
						CHANNELS 6 Xposition Yposition Zposition Zrotation Xrotation Yrotation 
						JOINT LowerArm_R
						{
							OFFSET -24.3289 0.000322201 0.0
							CHANNELS 6 Xposition Yposition Zposition Zrotation Xrotation Yrotation 
							JOINT Hand_R
							{
								OFFSET -22.2915 -0.000108084 0.0
								CHANNELS 6 Xposition Yposition Zposition Zrotation Xrotation Yrotation 
								End Site
								{
									OFFSET 0.0 0.0 0.0
								}
							}
						}
					}
				}
			}
		}
		JOINT UpperLeg_L
		{
			OFFSET -2.19248 -6.46944 0.0
			CHANNELS 6 Xposition Yposition Zposition Zrotation Xrotation Yrotation 
			JOINT LowerLeg_L
			{
				OFFSET 39.0811 0.0 -1.23785e-05
				CHANNELS 6 Xposition Yposition Zposition Zrotation Xrotation Yrotation 
				JOINT Foot_L
				{
					OFFSET 40.9854 0.0 -1.26872e-05
					CHANNELS 6 Xposition Yposition Zposition Zrotation Xrotation Yrotation 
					JOINT Toes_L
					{
						OFFSET 11.7543 0.0 0.0
						CHANNELS 6 Xposition Yposition Zposition Zrotation Xrotation Yrotation 
						End Site
						{
							OFFSET 0.0 0.0 0.0
						}
					}
				}
			}
		}
		JOINT UpperLeg_R
		{
			OFFSET -2.19251 6.46944 0.0
			CHANNELS 6 Xposition Yposition Zposition Zrotation Xrotation Yrotation 
			JOINT LowerLeg_R
			{
				OFFSET -39.0811 -0.00228153 -0.0401928
				CHANNELS 6 Xposition Yposition Zposition Zrotation Xrotation Yrotation 
				JOINT Foot_R
				{
					OFFSET -40.9854 0.0 0.0
					CHANNELS 6 Xposition Yposition Zposition Zrotation Xrotation Yrotation 
					JOINT Toes_R
					{
						OFFSET -11.7543 0.0 0.0
						CHANNELS 6 Xposition Yposition Zposition Zrotation Xrotation Yrotation 
						End Site
						{
							OFFSET 0.0 0.0 0.0
						}
					}
				}
			}
		}
	}
}
MOTION
Frames:	9
Frame Time:	0.0333333
0.000000 0.000000 0.000000 0.000000 0.000000 -0.000000 190.536000 89.665900 -93.822100 83.405800 5.090770 -1.658000 15.735700 0.000005 -0.000001 28.454300 86.637300 -24.629400 8.984550 -0.406207 -0.000000 -4.352560 -6.312250 7.420610 16.377300 -0.000001 -0.000001 4.120630 3.236940 -0.604431 6.456720 -0.000001 -0.000000 10.801900 7.074140 -5.475920 12.994200 -0.242716 4.980390 -93.088200 10.030300 -72.789100 5.348090 -0.000007 -0.000001 -76.001700 -0.580771 -2.210220 24.328600 0.000019 0.000005 30.210600 32.306200 -47.443600 22.291600 -0.000001 0.000005 49.110100 4.443880 17.512300 12.994500 -0.242716 -4.980390 89.074400 2.527930 -69.883700 -5.348130 -0.000001 -0.000004 -63.201500 -0.979242 8.586780 -24.328900 0.000322 -0.000009 0.507823 8.873690 -3.296170 -22.291500 -0.000108 -0.000004 30.435800 5.265800 1.010840 -2.192480 -6.469440 -0.000000 -169.314000 -2.038750 2.930850 39.081100 -0.000007 -0.000012 0.069272 -0.075161 42.664200 40.985400 -0.000006 -0.000013 -9.488080 19.155700 -23.680300 11.754300 -0.000000 0.000003 -0.058066 -0.325449 -30.010300 -2.192510 6.469440 -0.000001 -169.685000 -5.993770 152.293000 -39.081100 -0.002282 -0.040193 0.010034 -0.009985 34.025100 -40.985400 0.000008 0.000006 -2.886100 -9.142720 -66.366700 -11.754300 -0.000006 -0.000006 -0.008729 0.261553 -5.949680
0.000000 0.000000 0.000000 0.000000 0.000000 -0.000000 190.253000 89.538600 -90.171800 82.544700 6.914740 -0.408533 15.735700 0.000005 -0.000001 34.363400 86.462100 -30.343500 8.984550 -0.406207 -0.000000 -3.550550 -6.234050 7.855580 16.377300 -0.000001 -0.000001 3.652260 2.437910 -0.300820 6.456720 -0.000001 -0.000000 10.336500 5.967040 -5.058230 12.994200 -0.242716 4.980390 -92.976900 9.765140 -72.954200 5.348090 -0.000007 -0.000001 -76.353600 2.461880 -2.681030 24.328600 0.000019 0.000005 21.519700 34.574100 -34.789400 22.291600 -0.000001 0.000005 45.671600 4.529770 16.094100 12.994500 -0.242716 -4.980390 88.979600 2.777890 -69.821400 -5.348130 -0.000001 -0.000004 -66.112900 1.709110 5.161480 -24.328900 0.000322 -0.000009 0.616431 7.693830 -4.605420 -22.291500 -0.000108 -0.000004 29.609100 5.303190 -0.021668 -2.192480 -6.469440 -0.000000 -167.706000 0.128713 -3.899890 39.081100 -0.000007 -0.000012 0.171918 -0.134097 52.044900 40.985400 -0.000006 -0.000013 -14.492400 14.032000 -13.837600 11.754300 -0.000000 0.000003 0.001677 0.035947 -15.118600 -2.192510 6.469440 -0.000001 -167.814000 -2.388570 154.941000 -39.081100 -0.002282 -0.040193 0.010926 -0.010526 35.961600 -40.985400 0.000008 0.000006 -2.340530 -7.599010 -69.834100 -11.754300 -0.000006 -0.000006 -0.009866 0.270303 -5.591980
0.000000 0.000000 0.000000 0.000000 0.000000 -0.000000 190.166000 89.847600 -86.686800 82.245700 7.957940 0.680006 15.735700 0.000005 -0.000001 42.643100 86.470200 -38.725600 8.984550 -0.406207 -0.000000 -2.787250 -5.551340 7.705460 16.377300 -0.000001 -0.000001 3.270850 1.581660 0.307579 6.456720 -0.000001 -0.000000 9.841880 4.706380 -4.557520 12.994200 -0.242716 4.980390 -92.688700 8.901930 -73.118300 5.348090 -0.000007 -0.000001 -77.091100 2.139920 -2.003880 24.328600 0.000019 0.000005 15.175200 35.210000 -25.190800 22.291600 -0.000001 0.000005 43.030600 4.581190 15.235400 12.994500 -0.242716 -4.980390 88.932300 2.899370 -69.774000 -5.348130 -0.000001 -0.000004 -68.745900 5.391510 1.866110 -24.328900 0.000322 -0.000009 0.823963 6.286770 -7.499600 -22.291500 -0.000108 -0.000004 28.901500 5.336360 -0.973470 -2.192480 -6.469440 -0.000000 -167.260000 1.732890 -10.415100 39.081100 -0.000007 -0.000012 0.206234 -0.113667 61.137400 40.985400 -0.000006 -0.000013 -13.651700 13.805200 -21.190700 11.754300 -0.000000 0.000003 0.001556 0.032515 -15.257800 -2.192510 6.469440 -0.000001 -167.037000 -1.354080 158.617000 -39.081100 -0.002282 -0.040193 0.010937 -0.010700 35.553000 -40.985400 0.000008 0.000006 -2.161250 -7.831730 -71.948200 -11.754300 -0.000006 -0.000006 -0.009542 0.267854 -5.692130
0.000000 0.000000 0.000000 0.000000 0.000000 -0.000000 190.372000 90.385800 -83.338900 83.027700 7.820540 1.853000 15.735700 0.000005 -0.000001 55.072700 86.457300 -51.678500 8.984550 -0.406207 -0.000000 -1.820840 -4.339380 6.720630 16.377300 -0.000001 -0.000001 3.106630 0.972952 0.830975 6.456720 -0.000001 -0.000000 9.187490 3.447690 -3.823090 12.994200 -0.242716 4.980390 -92.495600 8.197910 -73.003700 5.348090 -0.000007 -0.000001 -76.670200 -1.467730 0.355946 24.328600 0.000019 0.000005 11.812600 33.686100 -20.660200 22.291600 -0.000001 0.000005 42.467700 4.575910 15.326800 12.994500 -0.242716 -4.980390 88.775500 3.348010 -69.897200 -5.348130 -0.000001 -0.000004 -69.994900 10.015200 -1.117530 -24.328900 0.000322 -0.000009 0.888007 4.009010 -12.543300 -22.291500 -0.000108 -0.000004 28.588100 5.362960 -1.769800 -2.192480 -6.469440 -0.000000 -168.534000 2.088350 -15.631900 39.081100 -0.000007 -0.000012 0.176743 -0.074921 67.026500 40.985400 -0.000006 -0.000013 -10.159900 13.077900 -31.015500 11.754300 -0.000000 0.000003 0.001848 0.041307 -14.901100 -2.192510 6.469440 -0.000001 -167.563000 -1.708470 163.221000 -39.081100 -0.002282 -0.040193 0.007409 -0.006116 33.935300 -40.985400 0.000008 0.000006 -2.429630 -8.331130 -73.394300 -11.754300 -0.000006 -0.000006 -0.009457 0.267205 -5.718670
0.000000 0.000000 0.000000 0.000000 0.000000 -0.000000 190.756000 91.044700 -80.181000 84.319700 7.024030 2.354330 15.735700 0.000005 -0.000001 65.827300 86.460900 -63.072100 8.984550 -0.406207 -0.000000 -1.227900 -3.113940 5.476150 16.377300 -0.000001 -0.000001 3.181660 0.631152 1.038190 6.456720 -0.000001 -0.000000 8.636290 2.507970 -3.343440 12.994200 -0.242716 4.980390 -92.451600 7.832520 -72.558700 5.348090 -0.000007 -0.000001 -74.470800 -6.554460 3.604670 24.328600 0.000019 0.000005 11.294900 33.977600 -19.665600 22.291600 -0.000001 0.000005 42.511300 4.577350 15.302200 12.994500 -0.242716 -4.980390 88.718100 3.530540 -70.030000 -5.348130 -0.000001 -0.000004 -70.403900 14.018600 -3.879950 -24.328900 0.000322 -0.000009 0.692111 1.962480 -19.486700 -22.291500 -0.000108 -0.000004 28.664000 5.383520 -2.410230 -2.192480 -6.469440 -0.000000 -170.660000 1.982550 -20.358300 39.081100 -0.000007 -0.000012 0.164770 -0.062031 69.368200 40.985400 -0.000006 -0.000013 -7.843910 7.698590 -39.558000 11.754300 -0.000000 0.000003 0.002154 0.053123 -14.422000 -2.192510 6.469440 -0.000001 -168.714000 -1.923530 167.713000 -39.081100 -0.002282 -0.040193 0.005009 -0.002821 31.215700 -40.985400 0.000008 0.000006 -2.253610 -8.028620 -74.085700 -11.754300 -0.000006 -0.000006 -0.009510 0.267604 -5.702330
0.000000 0.000000 0.000000 0.000000 0.000000 -0.000000 191.277000 91.737600 -77.203100 85.710200 5.928570 2.279050 15.735700 0.000005 -0.000001 75.274000 86.545900 -73.138500 8.984550 -0.406207 -0.000000 -1.045400 -1.919800 4.252210 16.377300 -0.000001 -0.000001 3.379400 0.439467 0.974213 6.456720 -0.000001 -0.000000 8.277400 1.731010 -3.113400 12.994200 -0.242716 4.980390 -92.474500 7.617760 -71.944400 5.348090 -0.000007 -0.000001 -70.913500 -10.203400 7.186400 24.328600 0.000019 0.000005 11.373000 33.556000 -19.996200 22.291600 -0.000001 0.000005 42.683100 4.562180 15.559800 12.994500 -0.242716 -4.980390 88.788300 3.376710 -70.247400 -5.348130 -0.000001 -0.000004 -70.769000 15.686100 -5.991560 -24.328900 0.000322 -0.000009 0.865950 1.649930 -27.748300 -22.291500 -0.000108 -0.000004 28.510700 5.403230 -3.044280 -2.192480 -6.469440 -0.000000 -173.137000 1.861800 -24.335600 39.081100 -0.000007 -0.000012 0.105667 -0.042286 68.186700 40.985400 -0.000006 -0.000013 -5.217660 1.326320 -47.841600 11.754300 -0.000000 0.000003 0.002360 0.064817 -13.947900 -2.192510 6.469440 -0.000001 -170.264000 -2.138760 171.823000 -39.081100 -0.002282 -0.040193 0.002173 0.002144 27.860800 -40.985400 0.000008 0.000006 -2.348180 -6.938390 -74.168500 -11.754300 -0.000006 -0.000006 -0.009049 0.264057 -5.847330
0.000000 0.000000 0.000000 0.000000 0.000000 -0.000000 191.893000 92.310100 -74.355400 87.084800 4.449180 1.868790 15.735700 0.000005 -0.000001 85.475800 86.633500 -83.902300 8.984550 -0.406207 -0.000000 -1.043130 -0.651892 3.139680 16.377300 -0.000001 -0.000001 3.511470 0.361449 0.796882 6.456720 -0.000001 -0.000000 8.078530 1.058420 -3.208960 12.994200 -0.242716 4.980390 -92.500200 7.389760 -71.248300 5.348090 -0.000007 -0.000001 -66.904100 -13.322500 10.436000 24.328600 0.000019 0.000005 11.028900 31.924800 -20.232400 22.291600 -0.000001 0.000005 42.914900 4.508370 16.460800 12.994500 -0.242716 -4.980390 88.904600 3.118390 -70.634600 -5.348130 -0.000001 -0.000004 -70.832800 16.810000 -8.166470 -24.328900 0.000322 -0.000009 1.258870 1.759600 -35.602300 -22.291500 -0.000108 -0.000004 28.365600 5.406550 -3.150760 -2.192480 -6.469440 -0.000000 -175.470000 1.926340 -27.075000 39.081100 -0.000007 -0.000012 0.040082 -0.020257 63.182400 40.985400 -0.000006 -0.000013 -2.810190 -3.829310 -53.769200 11.754300 -0.000000 0.000003 0.002261 0.058499 -14.204000 -2.192510 6.469440 -0.000001 -172.090000 -1.391410 175.518000 -39.081100 -0.002282 -0.040193 0.001072 0.004968 24.281100 -40.985400 0.000008 0.000006 -2.205850 -4.764450 -73.970300 -11.754300 -0.000006 -0.000006 -0.008945 0.263246 -5.880500
0.000000 0.000000 0.000000 0.000000 0.000000 -0.000000 192.451000 92.679400 -71.567100 88.172700 3.150920 1.483990 15.735700 0.000005 -0.000001 94.193100 86.620500 -93.050300 8.984550 -0.406207 -0.000000 -1.028250 0.406430 2.288350 16.377300 -0.000001 -0.000001 3.601220 0.434028 0.533535 6.456720 -0.000001 -0.000000 7.900580 0.499304 -3.443440 12.994200 -0.242716 4.980390 -92.455000 7.034730 -70.705800 5.348090 -0.000007 -0.000001 -62.955400 -16.624000 13.239900 24.328600 0.000019 0.000005 10.346500 29.776300 -20.184800 22.291600 -0.000001 0.000005 43.357500 4.457670 17.294200 12.994500 -0.242716 -4.980390 89.041600 2.791560 -71.043200 -5.348130 -0.000001 -0.000004 -70.647200 17.746600 -10.739300 -24.328900 0.000322 -0.000009 1.689370 1.887500 -41.854100 -22.291500 -0.000108 -0.000004 29.362700 5.421100 -3.635310 -2.192480 -6.469440 -0.000000 -176.883000 2.566070 -28.421400 39.081100 -0.000007 -0.000012 0.021388 -0.015154 54.674300 40.985400 -0.000006 -0.000013 -2.453560 -6.302770 -56.354500 11.754300 -0.000000 0.000003 0.002484 0.080646 -13.306100 -2.192510 6.469440 -0.000001 -173.923000 0.275785 179.113000 -39.081100 -0.002282 -0.040193 0.000400 0.007760 20.620600 -40.985400 0.000008 0.000006 -2.387970 -1.537920 -73.679100 -11.754300 -0.000006 -0.000006 -0.009911 0.270637 -5.578310
0.000000 0.000000 0.000000 0.000000 0.000000 -0.000000 192.906000 92.746000 -68.687200 88.658600 2.216060 1.350140 15.735700 0.000005 -0.000001 99.687900 86.506800 -98.728500 8.984550 -0.406207 -0.000000 -0.887836 1.102990 1.926450 16.377300 -0.000001 -0.000001 3.599150 0.539328 0.200705 6.456720 -0.000001 -0.000000 7.786320 0.124078 -3.774890 12.994200 -0.242716 4.980390 -92.381200 6.687020 -70.347800 5.348090 -0.000007 -0.000001 -59.220400 -19.306900 15.759000 24.328600 0.000019 0.000005 9.692780 27.761900 -20.137500 22.291600 -0.000001 0.000005 43.742300 4.433370 17.687900 12.994500 -0.242716 -4.980390 89.216200 2.336610 -71.451400 -5.348130 -0.000001 -0.000004 -70.559900 18.204700 -13.379900 -24.328900 0.000322 -0.000009 2.005130 1.874640 -46.961900 -22.291500 -0.000108 -0.000004 30.578700 5.411120 -3.304270 -2.192480 -6.469440 -0.000000 -177.186000 3.181010 -28.259000 39.081100 -0.000007 -0.000012 0.023862 -0.024630 44.089600 40.985400 -0.000006 -0.000013 -3.338620 -6.539880 -58.102100 11.754300 -0.000000 0.000003 0.002486 0.081944 -13.253500 -2.192510 6.469440 -0.000001 -175.268000 2.651910 -177.288000 -39.081100 -0.002282 -0.040193 -0.000380 0.011832 17.391600 -40.985400 0.000008 0.000006 -2.040730 1.731550 -73.448300 -11.754300 -0.000006 -0.000006 -0.009642 0.268610 -5.661180
